<svg width="16" height="20" viewBox="0 0 16 20" fill="none" xmlns="http://www.w3.org/2000/svg">
<path d="M14.7494 0.62664C14.6472 0.36483 14.4502 0.16452 14.2078 0.0762699L14.206 0.0756398L14.2043 0.0750099L14.2008 0.0737398L14.1933 0.0711399L14.1774 0.0658298C14.1663 0.0622298 14.1543 0.0585597 14.1413 0.0548697C14.1153 0.0474897 14.0856 0.0400699 14.0521 0.0331899C13.9851 0.0194099 13.9037 0.00786981 13.8077 0.00278981C13.615 -0.00741019 13.3681 0.00857978 13.065 0.0805398C12.5596 0.20053 11.9035 0.47464 11.0798 1.03631C11.026 1.07302 10.9714 1.11096 10.9162 1.15016C10.8608 1.13561 10.8055 1.12155 10.7501 1.108C9.24804 0.74083 7.69332 0.74083 6.19126 1.108C6.1358 1.12156 6.08042 1.13561 6.02512 1.15017C5.96983 1.11096 5.91525 1.07302 5.86138 1.03631C5.0368 0.47435 4.37918 0.20029 3.8725 0.0803898C3.56872 0.00851981 3.32131 -0.0073802 3.12845 0.0027798C3.03232 0.0078398 2.95091 0.0193098 2.88401 0.0329898C2.85062 0.0398198 2.82099 0.0471699 2.79512 0.0544699C2.78219 0.0581199 2.77021 0.0617598 2.75917 0.0653098L2.74334 0.0705598L2.73597 0.0731099L2.73241 0.0743697L2.73067 0.0749899L2.72895 0.0756098C2.48449 0.16397 2.28589 0.36623 2.18398 0.63061C1.80438 1.6154 1.70362 2.70134 1.88644 3.74306C1.89532 3.79367 1.90488 3.84418 1.9151 3.89458C1.87591 3.95373 1.83783 4.01368 1.80087 4.07439C1.23078 5.01089 0.927555 6.12791 0.941766 7.27493C0.943131 9.7315 1.61849 11.4139 2.76064 12.4965C3.40717 13.1093 4.15756 13.4844 4.91172 13.7208C4.99801 13.7479 5.08437 13.7731 5.17061 13.7967C5.15802 13.8432 5.14629 13.8901 5.13541 13.9373C5.08975 14.1357 5.05947 14.3394 5.04546 14.5461C5.04419 14.5648 5.04339 14.5835 5.04307 14.6022L5.01113 16.421L5.01095 16.4407C5.01095 16.4464 5.01095 16.4521 5.01095 16.4577C4.95303 16.473 4.89414 16.4843 4.83463 16.4916C4.65127 16.5141 4.46555 16.4977 4.28807 16.4434C4.11058 16.3891 3.9447 16.2979 3.8 16.1749C3.65529 16.0519 3.5346 15.8994 3.44498 15.7261L3.43575 15.7087C3.18903 15.2535 2.84824 14.8639 2.43897 14.5695C2.02969 14.275 1.56272 14.0836 1.07338 14.0099C0.558729 13.9324 0.0823837 14.3128 0.00943356 14.8597C-0.0635165 15.4065 0.294552 15.9126 0.809203 15.9901C1.01474 16.0211 1.21118 16.1015 1.38364 16.2256C1.55407 16.3482 1.69672 16.5103 1.80084 16.7C2.00903 17.0992 2.2886 17.4514 2.624 17.7365C2.96236 18.0242 3.35087 18.2379 3.76724 18.3653C4.17266 18.4893 4.5966 18.5291 5.01596 18.4825C5.01681 18.7224 5.01741 18.9065 5.01741 19C5.01741 19.5523 5.41664 20 5.90911 20H11.0642C11.5566 20 11.9559 19.5523 11.9559 19V15.2095C11.9802 14.7802 11.9387 14.3499 11.8341 13.9373C11.8197 13.8805 11.8041 13.824 11.7873 13.7679C11.8435 13.753 11.8997 13.7373 11.9559 13.7208C12.7319 13.4937 13.507 13.1224 14.1729 12.4983C15.3214 11.4217 15.9982 9.7379 15.9995 7.27493C16.0137 6.12791 15.7105 5.01089 15.1404 4.07439C15.1034 4.01358 15.0653 3.95354 15.026 3.89429C15.0361 3.84399 15.0456 3.79358 15.0545 3.74306C15.2369 2.69934 15.1336 1.61142 14.7494 0.62664Z" fill="#FFF200"/>
</svg>
