<svg width="20" height="20" viewBox="0 0 20 20" fill="none" xmlns="http://www.w3.org/2000/svg">
<path d="M10.0002 0C4.48601 0 0 4.48591 0 10C0 15.5141 4.48601 20 10.0002 20C15.5144 20 20 15.5141 20 10C20 4.48591 15.5144 0 10.0002 0ZM15.8099 14.0861C15.9721 13.581 16.1054 13.0525 16.2061 12.5027C16.877 12.3211 17.4742 12.1034 17.9738 11.8531C17.94 11.9995 17.9038 12.1449 17.8614 12.289C17.3721 12.9748 16.6705 13.5842 15.8099 14.0861ZM12.2893 17.861C12.1456 17.903 12.0002 17.9391 11.8534 17.973C12.1036 17.4743 12.3209 16.8761 12.503 16.2057C13.0528 16.105 13.5814 15.9717 14.086 15.8095C13.5845 16.6697 12.9751 17.3713 12.2893 17.861ZM5.91403 15.8095C6.41955 15.9717 6.94812 16.105 7.49746 16.2057C7.67952 16.8761 7.89682 17.4738 8.14709 17.973C8.00027 17.9391 7.8548 17.903 7.71114 17.861C7.02537 17.3713 6.41594 16.6697 5.91403 15.8095ZM2.1391 12.2881C2.09708 12.1449 2.06094 11.9995 2.02661 11.8522C2.52581 12.1029 3.12349 12.3198 3.79436 12.5018C3.8951 13.0511 4.02837 13.5797 4.19055 14.0852C3.32949 13.5833 2.62836 12.9748 2.1391 12.2881ZM4.1901 5.91344C4.02792 6.41896 3.8951 6.94751 3.79436 7.49639C3.12349 7.67889 2.52626 7.89574 2.02661 8.14601C2.06094 7.99964 2.09708 7.85417 2.1391 7.71052C2.62836 7.02476 3.32949 6.41534 4.1901 5.91344ZM7.71114 2.1386C7.8548 2.09658 8.00027 2.06044 8.14709 2.02611C7.89682 2.5253 7.67952 3.12297 7.49746 3.79382C6.94812 3.89456 6.41955 4.02783 5.91403 4.19001C6.41549 3.32942 7.02537 2.62785 7.71114 2.1386ZM14.0869 4.19001C13.5814 4.02783 13.0528 3.89501 12.503 3.79382C12.3214 3.12297 12.1036 2.5253 11.8534 2.02611C12.0002 2.05999 12.1452 2.09658 12.2893 2.13815C12.9751 2.62785 13.5845 3.32942 14.0869 4.19001ZM17.8614 7.71097C17.9038 7.85417 17.94 8.00009 17.9738 8.14646C17.4751 7.89619 16.877 7.67935 16.2061 7.49684C16.1054 6.94751 15.9721 6.41896 15.8104 5.9139C16.6705 6.41534 17.3721 7.02476 17.8614 7.71097ZM10.0002 18.1925C9.76892 18.1925 9.54123 18.1767 9.31445 18.1573C9.02532 17.7711 8.7371 17.1648 8.48456 16.3485C8.97969 16.4022 9.48296 16.437 10.0002 16.437C10.5175 16.437 11.0203 16.4013 11.5159 16.3485C11.2629 17.1648 10.9756 17.7706 10.686 18.1573C10.4592 18.1767 10.2315 18.1925 10.0002 18.1925ZM10.0002 15.5344C9.39622 15.5344 8.80667 15.4938 8.23745 15.4179C8.08159 14.7515 7.95058 13.9912 7.8548 13.1447C8.56001 13.1952 9.28057 13.221 10.0002 13.221C10.7199 13.221 11.4404 13.1952 12.1456 13.1447C12.0503 13.9912 11.9189 14.752 11.763 15.4179C11.1938 15.4938 10.6042 15.5344 10.0002 15.5344ZM10.0002 12.3175C9.20783 12.3175 8.46649 12.285 7.76852 12.2321C7.71476 11.5342 7.68268 10.7924 7.68268 10.0005C7.68268 9.20853 7.71521 8.46675 7.76852 7.76879C8.46649 7.71503 9.20783 7.68296 10.0002 7.68296C10.7926 7.68296 11.534 7.71549 12.2319 7.76879C12.2857 8.46675 12.3173 9.20808 12.3173 10.0005C12.3173 10.7928 12.2852 11.5346 12.2319 12.2321C11.534 12.2845 10.7926 12.3175 10.0002 12.3175ZM1.80705 9.99955C1.80705 9.76825 1.82286 9.54057 1.84184 9.31379C2.2281 9.02467 2.83481 8.73645 3.6507 8.48392C3.59694 8.97904 3.5617 9.48229 3.5617 9.99955C3.5617 10.5168 3.59739 11.0205 3.6507 11.5152C2.83436 11.2622 2.2281 10.9744 1.84184 10.6849C1.82286 10.459 1.80705 10.2313 1.80705 9.99955ZM4.46568 9.99955C4.46568 9.39556 4.50634 8.80602 4.58223 8.23681C5.24858 8.08095 6.0089 7.94995 6.8555 7.85417C6.80491 8.55936 6.77916 9.27991 6.77916 9.99955C6.77916 10.7196 6.80491 11.4397 6.8555 12.1449C6.00845 12.0492 5.24858 11.9181 4.58223 11.7623C4.50588 11.1931 4.46568 10.6035 4.46568 9.99955ZM10.0002 1.80701C10.2315 1.80701 10.4592 1.82282 10.686 1.8418C10.9756 2.22804 11.2629 2.83475 11.5159 3.65107C11.0212 3.59731 10.5175 3.56207 10.0002 3.56207C9.48296 3.56207 8.97924 3.59776 8.48456 3.65107C8.7371 2.83475 9.02532 2.2285 9.31445 1.8418C9.54123 1.82282 9.76892 1.80701 10.0002 1.80701ZM10.0002 4.46512C10.6042 4.46512 11.1938 4.50578 11.763 4.58168C11.9189 5.24801 12.0503 6.00831 12.1456 6.8549C11.4404 6.8043 10.7199 6.77855 10.0002 6.77855C9.28057 6.77855 8.56001 6.8043 7.8548 6.8549C7.95058 6.00831 8.08159 5.24801 8.23745 4.58168C8.80667 4.50578 9.39622 4.46512 10.0002 4.46512ZM13.1454 7.85417C13.9916 7.94995 14.7523 8.08095 15.4182 8.23681C15.4941 8.80602 15.5348 9.39556 15.5348 9.99955C15.5348 10.6035 15.4941 11.1935 15.4182 11.7623C14.7519 11.9181 13.9916 12.0492 13.1454 12.1449C13.1955 11.4393 13.2213 10.7196 13.2213 9.99955C13.2213 9.27991 13.1955 8.55936 13.1454 7.85417ZM16.3493 8.48392C17.1656 8.73645 17.7719 9.02467 18.1582 9.31379C18.1771 9.54057 18.1929 9.76825 18.1929 9.99955C18.1929 10.2308 18.1771 10.4585 18.1582 10.6853C17.7724 10.9749 17.1652 11.2626 16.3493 11.5156C16.4026 11.0205 16.4378 10.5168 16.4378 10C16.4383 9.48274 16.4031 8.97904 16.3493 8.48392ZM15.2479 7.26961C14.563 7.12821 13.8285 7.01572 13.0641 6.93531C12.9837 6.1714 12.8716 5.43639 12.7298 4.75199C13.4147 4.89836 14.0593 5.09803 14.6561 5.34333C14.9014 5.94055 15.1015 6.58565 15.2479 7.26961ZM7.27022 4.75244C7.12882 5.43685 7.01633 6.1714 6.93592 6.93576C6.17153 7.01617 5.43697 7.12821 4.75255 7.27006C4.89892 6.58565 5.0986 5.941 5.3439 5.34424C5.94068 5.09848 6.5858 4.89881 7.27022 4.75244ZM4.753 12.7295C5.43742 12.8704 6.17199 12.9834 6.93637 13.0638C7.01678 13.8277 7.12882 14.5627 7.27067 15.2471C6.58625 15.1007 5.94114 14.9006 5.34481 14.6553C5.0986 14.059 4.89892 13.4139 4.753 12.7295ZM12.7307 15.2471C12.8716 14.5627 12.9846 13.8277 13.065 13.0638C13.8285 12.9834 14.5635 12.8713 15.2479 12.7295C15.1015 13.4143 14.9019 14.059 14.6561 14.6558C14.0598 14.9006 13.4147 15.1007 12.7307 15.2471ZM16.858 5.53081C16.3967 5.20871 15.889 4.91597 15.3369 4.6639C15.0844 4.1114 14.7921 3.60454 14.47 3.14239C15.4218 3.76491 16.2355 4.57851 16.858 5.53081ZM5.53048 3.14239C5.20838 3.60454 4.91563 4.11185 4.66355 4.6639C4.11104 4.91597 3.60462 5.20871 3.14246 5.53081C3.76499 4.57851 4.57907 3.76491 5.53048 3.14239ZM3.14246 14.4692C3.60462 14.7913 4.1115 15.0836 4.66355 15.3357C4.91563 15.8886 5.20838 16.395 5.53048 16.8567C4.57907 16.2351 3.76499 15.421 3.14246 14.4692ZM14.4695 16.8576C14.7916 16.3955 15.0844 15.8881 15.3365 15.3357C15.8894 15.0836 16.3958 14.7913 16.858 14.4692C16.2355 15.421 15.4218 16.2351 14.4695 16.8576Z" fill="#FFF200"/>
</svg>
