<svg width="6" height="8" viewBox="0 0 6 8" fill="none" xmlns="http://www.w3.org/2000/svg">
<path d="M1.0674 1.61237C1.55722 1.77604 2.23918 1.87685 2.99644 1.87685C3.7537 1.87685 4.43744 1.77901 4.92726 1.61237C5.35718 1.46887 5.62285 1.29512 5.62285 1.12493C5.62285 0.954734 5.35718 0.781577 4.92726 0.63807C4.43744 0.474402 3.75548 0.372998 2.99822 0.372998C2.24096 0.372998 1.559 0.474402 1.0674 0.63807C0.157146 0.942281 0.131647 1.29927 1.0674 1.61237ZM4.74402 5.79304C4.80281 5.79233 4.86048 5.80912 4.9097 5.84127C4.95893 5.87342 4.99749 5.91947 5.02047 5.97359C5.04346 6.0277 5.04984 6.08742 5.03881 6.14517C5.02777 6.20292 4.99982 6.25608 4.9585 6.29791C4.91717 6.33973 4.86435 6.36832 4.80674 6.38006C4.74913 6.39179 4.68933 6.38613 4.63495 6.3638C4.58056 6.34146 4.53404 6.30346 4.5013 6.25463C4.46856 6.2058 4.45108 6.14833 4.45108 6.08954C4.4506 6.05077 4.45783 6.0123 4.47234 5.97634C4.48686 5.94039 4.50836 5.90767 4.53561 5.88009C4.56286 5.85251 4.59531 5.83062 4.63109 5.81567C4.66686 5.80073 4.70525 5.79304 4.74402 5.79304ZM4.74402 4.13263C4.80197 4.13252 4.85866 4.14956 4.90695 4.18162C4.95523 4.21367 4.99294 4.2593 5.01534 4.31275C5.03773 4.36621 5.0438 4.42509 5.03278 4.48199C5.02176 4.53889 4.99414 4.59125 4.95341 4.63247C4.91267 4.6737 4.86065 4.70195 4.80389 4.71365C4.74713 4.72536 4.68818 4.72 4.63446 4.69826C4.58074 4.67651 4.53466 4.63935 4.50202 4.59146C4.46939 4.54357 4.45166 4.48709 4.45108 4.42913C4.4506 4.39037 4.45783 4.35189 4.47234 4.31594C4.48686 4.27998 4.50836 4.24727 4.53561 4.21969C4.56286 4.19211 4.59531 4.17021 4.63109 4.15527C4.66686 4.14032 4.70525 4.13263 4.74402 4.13263ZM4.74402 2.40522C4.8021 2.4051 4.85891 2.42222 4.90726 2.4544C4.95561 2.48658 4.99332 2.53238 5.01563 2.58601C5.03794 2.63964 5.04384 2.69868 5.03258 2.75565C5.02132 2.81263 4.99341 2.86499 4.95238 2.9061C4.91135 2.94722 4.85905 2.97523 4.8021 2.9866C4.74514 2.99798 4.68609 2.9922 4.63242 2.97C4.57875 2.9478 4.53287 2.91018 4.50059 2.86189C4.46831 2.81361 4.45108 2.75683 4.45108 2.69875C4.45139 2.62127 4.48239 2.54706 4.53729 2.49238C4.5922 2.4377 4.66653 2.407 4.74402 2.407V2.40522ZM5.62166 5.07373C5.44221 5.19115 5.24746 5.28333 5.04289 5.34769C4.51749 5.5256 3.79521 5.63352 2.99822 5.63352C2.20122 5.63352 1.47895 5.52559 0.948804 5.34947C0.746211 5.28573 0.553132 5.19497 0.374777 5.07966V6.19687C0.408579 6.3558 0.666535 6.51532 1.06681 6.64874C1.55663 6.81241 2.23858 6.91381 2.99585 6.91381C3.75311 6.91381 4.43506 6.81241 4.92488 6.64874C5.22139 6.54971 5.4402 6.43645 5.54694 6.31962C5.6353 6.22297 5.62166 6.15951 5.62166 6.04447V5.07551V5.07373ZM0 1.1267C0 0.776833 0.36351 0.481518 0.948804 0.285234C1.47895 0.109112 2.203 0 2.99822 0C3.79344 0 4.51749 0.109112 5.04526 0.285234C5.57304 0.461356 5.93002 0.724649 5.98932 1.03242C5.9965 1.05259 6.00012 1.07386 6 1.09528V6.23898C6 6.59478 5.31864 6.91085 5.04704 7.00158C4.51927 7.17948 3.79521 7.28681 3 7.28681C2.20478 7.28681 1.47895 7.17533 0.948804 7.00158C0.670686 6.90907 0 6.60367 0 6.23898V6.12038C0.00276734 4.45523 0.00276734 2.79067 0 1.1267ZM0.377149 4.54477C0.410951 4.70369 0.668907 4.86262 1.0674 4.99664C1.55722 5.16031 2.23918 5.26171 2.99644 5.26171C3.7537 5.26171 4.43744 5.15912 4.92726 4.99664C5.35718 4.85313 5.62285 4.67938 5.62285 4.50978V3.4234C5.4429 3.5407 5.24778 3.63287 5.04289 3.69737C4.51512 3.87527 3.79106 3.9826 2.99585 3.9826C2.20063 3.9826 1.47895 3.87349 0.948804 3.69737C0.747034 3.63342 0.554764 3.54267 0.377149 3.42755V4.54477ZM0.377149 2.89266C0.410951 3.05159 0.668907 3.21111 1.06918 3.34453C1.559 3.5082 2.24096 3.6096 2.99822 3.6096C3.75548 3.6096 4.43744 3.5082 4.92726 3.34453C5.35718 3.20103 5.62285 3.02728 5.62285 2.85768V1.69124C5.44277 1.80831 5.24768 1.90046 5.04289 1.96521C4.51749 2.14133 3.79521 2.25341 2.99822 2.25341C2.20122 2.25341 1.47895 2.14133 0.948804 1.96521C0.74618 1.90128 0.5531 1.81032 0.374777 1.6948V2.89266H0.377149Z" fill="white"/>
</svg>
