<svg width="201" height="77" viewBox="0 0 201 77" fill="none" xmlns="http://www.w3.org/2000/svg">
<path d="M0.468628 0V5.20477H39.3982V0H0.468628ZM44.9138 0V5.20477H100.39C100.39 5.20477 94.7238 0 87.2186 0H44.9138ZM111.273 0V5.20477H144.836L142.844 0H111.273ZM168.898 0L166.906 5.20477H200.164V0H168.898ZM0.468628 10.122V15.3267H39.3982V10.122H0.468628ZM44.9138 10.1294V15.3269H106.828C106.828 15.3269 106.105 11.3211 104.843 10.1294H44.9138ZM111.273 10.1294V15.3269H148.515L146.672 10.1294H111.273ZM164.914 10.1294L163.07 15.3269H200.164V10.1294H164.914ZM11.656 20.244V25.4561H28.5154V20.244H11.656ZM56.1014 20.244V25.4561H72.9608V20.244H56.1014ZM89.3592 20.244V25.4561H106.219C106.219 25.4561 107.289 22.7036 107.289 20.244H89.3592ZM122.461 20.244V25.4561H152.351L150.359 20.244H122.461ZM161.242 20.244L159.242 25.4561H189.281V20.244H161.242ZM11.656 30.3735V35.5783H28.5154V30.3735H11.656ZM56.1014 30.3735V35.5783H99.1638C99.1638 35.5783 102.766 32.9077 103.914 30.3735H56.1014ZM122.461 30.3735V35.5783H139.32V32.681L140.391 35.5783H171.273L172.422 32.681V35.5783H189.281V30.3735H157.633L155.953 34.782L154.265 30.3735H122.461ZM11.656 40.4955V45.7003H28.5154V40.4955H11.656ZM56.1014 40.4955V45.7003H103.914C102.766 43.1744 99.1638 40.4955 99.1638 40.4955H56.1014ZM122.461 40.4955V45.7003H139.32V40.4955H122.461ZM142.383 40.4955L144.422 45.7003H167.578L169.515 40.4955H142.383ZM172.422 40.4955V45.7003H189.281V40.4955H172.422ZM11.656 50.6175V55.8221H28.5154V50.6175H11.656ZM56.1014 50.6175V55.8221H72.9608V50.6175H56.1014ZM89.3592 50.6175V55.8221H107.289C107.289 53.3658 106.218 50.6175 106.218 50.6175H89.3592ZM122.461 50.6175V55.8221H139.32V50.6175H122.461ZM146.211 50.6175L148.187 55.8221H163.711L165.703 50.6175H146.211ZM172.422 50.6175V55.8221H189.281V50.6175H172.422ZM0.773228 60.7395V65.9517H39.7028V60.7395H0.773228ZM44.9138 60.7395V65.9517H104.843C106.105 64.7582 106.828 60.7395 106.828 60.7395H44.9138ZM111.578 60.7395V65.9517H139.32V60.7395H111.578ZM150.047 60.7395L152.078 65.9517H159.976L161.882 60.7395H150.047ZM172.422 60.7395V65.9517H200.469V60.7395H172.422ZM0.773228 70.8689V76.0736H39.7028V70.8689H0.773228ZM44.9138 70.8689V76.0662H87.2186C94.7238 76.0662 100.39 70.8689 100.39 70.8689H44.9138ZM111.578 70.8689V76.0736H139.32V70.8689H111.578ZM153.898 70.8689L155.851 76.059L156.187 76.0662L158.172 70.8689H153.898ZM172.422 70.8689V76.0736H200.469V70.8689H172.422Z" fill="white"/>
</svg>
