<svg width="40" height="40" viewBox="0 0 40 40" fill="none" xmlns="http://www.w3.org/2000/svg">
<path d="M35.8333 32.5V20H32.5V32.5C32.5 36.6667 35.8333 40 40 40V36.6667C37.6667 36.6667 35.8333 34.8333 35.8333 32.5Z" fill="#FFF200"/>
<path d="M4.16669 20C4.16669 22.0792 4.57623 24.1381 5.37193 26.0591C6.16763 27.9801 7.3339 29.7256 8.80416 31.1958C10.2744 32.6661 12.0199 33.8324 13.9409 34.6281C15.8619 35.4238 17.9208 35.8333 20 35.8333C22.0793 35.8333 24.1382 35.4238 26.0592 34.6281C27.9802 33.8324 29.7256 32.6661 31.1959 31.1958C32.6661 29.7256 33.8324 27.9801 34.6281 26.0591C35.4238 24.1381 35.8334 22.0792 35.8334 20C35.8334 15.8007 34.1652 11.7734 31.1959 8.8041C28.2266 5.83478 24.1993 4.16663 20 4.16663C15.8008 4.16663 11.7735 5.83478 8.80416 8.8041C5.83484 11.7734 4.16669 15.8007 4.16669 20Z" fill="#8D99AE"/>
<path d="M18.3333 20C18.3333 20.4421 18.5089 20.866 18.8215 21.1786C19.134 21.4911 19.558 21.6667 20 21.6667C20.442 21.6667 20.8659 21.4911 21.1785 21.1786C21.491 20.866 21.6666 20.4421 21.6666 20C21.6666 19.558 21.491 19.1341 21.1785 18.8215C20.8659 18.509 20.442 18.3334 20 18.3334C19.558 18.3334 19.134 18.509 18.8215 18.8215C18.5089 19.1341 18.3333 19.558 18.3333 20Z" fill="#2B2D42"/>
<path d="M15.8333 11.6667C15.8333 12.2138 15.9411 12.7557 16.1505 13.2612C16.3599 13.7667 16.6668 14.226 17.0537 14.6129C17.4406 14.9999 17.8999 15.3068 18.4055 15.5162C18.911 15.7256 19.4528 15.8333 20 15.8333C20.5472 15.8333 21.089 15.7256 21.5945 15.5162C22.1 15.3068 22.5593 14.9999 22.9463 14.6129C23.3332 14.226 23.6401 13.7667 23.8495 13.2612C24.0589 12.7557 24.1666 12.2138 24.1666 11.6667C24.1666 11.1195 24.0589 10.5777 23.8495 10.0722C23.6401 9.56663 23.3332 9.1073 22.9463 8.72039C22.5593 8.33348 22.1 8.02656 21.5945 7.81717C21.089 7.60777 20.5472 7.5 20 7.5C19.4528 7.5 18.911 7.60777 18.4055 7.81717C17.8999 8.02656 17.4406 8.33348 17.0537 8.72039C16.6668 9.1073 16.3599 9.56663 16.1505 10.0722C15.9411 10.5777 15.8333 11.1195 15.8333 11.6667Z" fill="#2B2D42"/>
<path d="M15.8333 28.3333C15.8333 28.8805 15.9411 29.4223 16.1505 29.9278C16.3599 30.4333 16.6668 30.8927 17.0537 31.2796C17.4406 31.6665 17.8999 31.9734 18.4055 32.1828C18.911 32.3922 19.4528 32.5 20 32.5C20.5472 32.5 21.089 32.3922 21.5945 32.1828C22.1 31.9734 22.5593 31.6665 22.9463 31.2796C23.3332 30.8927 23.6401 30.4333 23.8495 29.9278C24.0589 29.4223 24.1666 28.8805 24.1666 28.3333C24.1666 27.7861 24.0589 27.2443 23.8495 26.7388C23.6401 26.2333 23.3332 25.7739 22.9463 25.387C22.5593 25.0001 22.1 24.6932 21.5945 24.4838C21.089 24.2744 20.5472 24.1666 20 24.1666C19.4528 24.1666 18.911 24.2744 18.4055 24.4838C17.8999 24.6932 17.4406 25.0001 17.0537 25.387C16.6668 25.7739 16.3599 26.2333 16.1505 26.7388C15.9411 27.2443 15.8333 27.7861 15.8333 28.3333Z" fill="#2B2D42"/>
<path d="M24.1667 20C24.1666 20.5472 24.2744 21.089 24.4837 21.5946C24.6931 22.1002 25 22.5595 25.3869 22.9465C25.7738 23.3334 26.2332 23.6404 26.7387 23.8498C27.2443 24.0592 27.7861 24.167 28.3334 24.167C28.8806 24.167 29.4224 24.0592 29.928 23.8498C30.4335 23.6404 30.8929 23.3334 31.2798 22.9465C31.6667 22.5595 31.9736 22.1002 32.183 21.5946C32.3923 21.089 32.5001 20.5472 32.5 20C32.5001 19.4527 32.3923 18.9109 32.183 18.4053C31.9736 17.8997 31.6667 17.4404 31.2798 17.0534C30.8929 16.6665 30.4335 16.3595 29.928 16.1501C29.4224 15.9407 28.8806 15.8329 28.3334 15.8329C27.7861 15.8329 27.2443 15.9407 26.7387 16.1501C26.2332 16.3595 25.7738 16.6665 25.3869 17.0534C25 17.4404 24.6931 17.8997 24.4837 18.4053C24.2744 18.9109 24.1666 19.4527 24.1667 20Z" fill="#2B2D42"/>
<path d="M7.5 20C7.49995 20.5472 7.60768 21.089 7.81705 21.5946C8.02642 22.1002 8.33333 22.5595 8.72025 22.9465C9.10716 23.3334 9.56651 23.6404 10.0721 23.8498C10.5776 24.0592 11.1195 24.167 11.6667 24.167C12.2139 24.167 12.7557 24.0592 13.2613 23.8498C13.7668 23.6404 14.2262 23.3334 14.6131 22.9465C15 22.5595 15.3069 22.1002 15.5163 21.5946C15.7257 21.089 15.8334 20.5472 15.8333 20C15.8334 19.4527 15.7257 18.9109 15.5163 18.4053C15.3069 17.8997 15 17.4404 14.6131 17.0534C14.2262 16.6665 13.7668 16.3595 13.2613 16.1501C12.7557 15.9407 12.2139 15.8329 11.6667 15.8329C11.1195 15.8329 10.5776 15.9407 10.0721 16.1501C9.56651 16.3595 9.10716 16.6665 8.72025 17.0534C8.33333 17.4404 8.02642 17.8997 7.81705 18.4053C7.60768 18.9109 7.49995 19.4527 7.5 20Z" fill="#2B2D42"/>
</svg>
