<svg width="40" height="40" viewBox="0 0 40 40" fill="none" xmlns="http://www.w3.org/2000/svg">
<path d="M30.4288 17.7266H9.57125C4.28547 17.7266 0 22.0115 0 27.2979C0 32.5837 4.28547 36.8691 9.57125 36.8691C12.9035 36.8691 15.8368 35.1651 17.5505 32.5837H22.4495C24.1632 35.1651 27.0971 36.8691 30.4288 36.8691C35.7152 36.8691 40 32.5837 40 27.2979C40 22.0115 35.7152 17.7266 30.4288 17.7266ZM30.4288 34.401C28.0432 34.401 25.8287 33.2115 24.5055 31.2182L23.7733 30.1155H22.4495H17.5505H16.2267L15.4946 31.2182C14.1713 33.2115 11.957 34.401 9.57125 34.401C5.65453 34.401 2.46812 31.2146 2.46812 27.2979C2.46812 23.3812 5.65453 20.1947 9.57125 20.1947H30.4288C34.3455 20.1947 37.5319 23.3811 37.5319 27.2979C37.5319 31.2145 34.3455 34.401 30.4288 34.401Z" fill="#8D99AE"/>
<path d="M21.0099 8.66387C21.0099 8.47168 21.0479 8.29512 21.1166 8.13239C21.219 7.88895 21.3938 7.67926 21.6113 7.53161C21.8301 7.38395 22.0867 7.29957 22.3736 7.29957C22.564 7.29957 22.7411 7.33817 22.9039 7.40684C23.1473 7.50926 23.3569 7.68286 23.5046 7.90161C23.6516 8.12036 23.7366 8.377 23.7366 8.66379C23.7366 9.12419 23.8306 9.5695 24.0018 9.97254C24.2579 10.5775 24.6827 11.0891 25.219 11.4513C25.754 11.814 26.4072 12.0274 27.1002 12.0268C27.5624 12.0268 28.0077 11.9322 28.4102 11.7616C29.014 11.5055 29.5261 11.0807 29.8883 10.5444C30.2511 10.0087 30.4638 9.35614 30.4638 8.66379V3.13098H28.4633V8.66379C28.4633 8.85419 28.4259 9.03137 28.3572 9.19348C28.2542 9.43754 28.0794 9.64723 27.8625 9.79426C27.6431 9.94122 27.3865 10.0262 27.1002 10.0262C26.9099 10.0262 26.7326 9.98825 26.57 9.91957C26.3265 9.81715 26.1169 9.64239 25.9698 9.42481C25.8222 9.20606 25.7372 8.94825 25.7361 8.66379C25.7373 8.20098 25.6433 7.75629 25.4722 7.35379C25.216 6.74879 24.7912 6.23723 24.255 5.87504C23.7187 5.51168 23.0667 5.29895 22.3737 5.29958C21.9121 5.29895 21.4669 5.39356 21.0637 5.56473C20.4588 5.81965 19.9472 6.24567 19.5851 6.78192C19.2222 7.31762 19.0101 7.9702 19.0101 8.66379V16.8443H21.0101V8.66387H21.0099Z" fill="#8D99AE"/>
<path d="M10.8096 22.9171H8.23842V25.8691H5.28577V28.4416H8.23842V31.393H10.8096V28.4416H13.7622V25.8691H10.8096V22.9171Z" fill="#FFF200"/>
<path d="M29.3067 22.6327C28.6866 23.2521 28.6879 24.2572 29.3067 24.8767C29.9267 25.4961 30.9312 25.4961 31.5501 24.8767C32.1701 24.2572 32.1701 23.2521 31.5501 22.6327C30.9312 22.0132 29.9268 22.0132 29.3067 22.6327Z" fill="#FFF200"/>
<path d="M25.7636 26.1758C25.1441 26.7953 25.1441 27.8004 25.7636 28.4198C26.3837 29.0393 27.3881 29.0393 28.0076 28.4198C28.6271 27.8004 28.6271 26.7953 28.0076 26.1752C27.3881 25.5564 26.3837 25.5564 25.7636 26.1758Z" fill="#8D99AE"/>
<path d="M29.3067 29.719C28.6867 30.3385 28.6867 31.3429 29.3067 31.9624C29.9267 32.5818 30.9313 32.5818 31.5502 31.963C32.1702 31.3429 32.1702 30.3385 31.5502 29.7177C30.9313 29.0983 29.9268 29.0995 29.3067 29.719Z" fill="#8D99AE"/>
<path d="M35.0932 26.1758C34.4744 25.5563 33.4693 25.5563 32.8492 26.1758C32.2291 26.7952 32.2291 27.8003 32.8492 28.4198C33.4693 29.0392 34.4744 29.0392 35.0932 28.4198C35.7127 27.8003 35.7127 26.7952 35.0932 26.1758Z" fill="#FFF200"/>
</svg>
