<svg width="40" height="40" viewBox="0 0 40 40" fill="none" xmlns="http://www.w3.org/2000/svg">
<path d="M27.4963 33.8244L25.9363 33.2128L31.7444 18.3666C32.0117 17.6818 31.6492 16.9091 30.9497 16.6821L20.791 13.3642C20.1392 13.1518 19.436 13.4887 19.1943 14.1296L14.1333 27.5183L11.7346 26.6137L18.8391 7.81977C19.0771 7.18622 19.7693 6.84931 20.4175 7.04706L35.6152 11.7419C36.3257 11.9616 36.7029 12.738 36.4319 13.4338L28.6536 33.319C28.4705 33.7768 27.9541 34.0039 27.4963 33.8244Z" fill="#FFF200"/>
<path d="M4.36279 25.7092C4.36279 27.0496 4.89524 28.335 5.84299 29.2827C6.79075 30.2305 8.07618 30.7629 9.4165 30.7629C10.7568 30.7629 12.0423 30.2305 12.99 29.2827C13.9378 28.335 14.4702 27.0496 14.4702 25.7092C14.4702 24.3689 13.9378 23.0835 12.99 22.1357C12.0423 21.188 10.7568 20.6555 9.4165 20.6555C8.07618 20.6555 6.79075 21.188 5.84299 22.1357C4.89524 23.0835 4.36279 24.3689 4.36279 25.7092Z" fill="#FFF200"/>
<path d="M18.9453 31.3635C18.9453 32.7039 19.4778 33.9893 20.4255 34.937C21.3733 35.8848 22.6587 36.4172 23.999 36.4172C25.3394 36.4172 26.6248 35.8848 27.5725 34.937C28.5203 33.9893 29.0527 32.7039 29.0527 31.3635C29.0527 30.0232 28.5203 28.7378 27.5725 27.79C26.6248 26.8423 25.3394 26.3098 23.999 26.3098C22.6587 26.3098 21.3733 26.8423 20.4255 27.79C19.4778 28.7378 18.9453 30.0232 18.9453 31.3635Z" fill="#FFF200"/>
<path d="M9.6302 14.819L5.5638 4.63543C5.29817 3.97528 5.65755 3.22918 6.33724 3.02215L10.5521 1.737C11.1146 1.56512 11.7122 1.83465 11.9583 2.36981L12.474 3.49481C12.7669 4.13153 12.4388 4.87762 11.7747 5.09637L8.89583 6.04559C8.6263 6.13543 8.48567 6.43231 8.59114 6.69403L11.3411 13.7097C11.4232 13.9206 11.3216 14.155 11.1107 14.2409L9.6302 14.819Z" fill="#8D99AE"/>
<path d="M4.9505 14.819C4.9505 15.254 5.03618 15.6847 5.20265 16.0866C5.36912 16.4885 5.61312 16.8537 5.92071 17.1613C6.2283 17.4689 6.59347 17.7129 6.99536 17.8793C7.39725 18.0458 7.828 18.1315 8.263 18.1315C8.698 18.1315 9.12875 18.0458 9.53064 17.8793C9.93253 17.7129 10.2977 17.4689 10.6053 17.1613C10.9129 16.8537 11.1569 16.4885 11.3234 16.0866C11.4898 15.6847 11.5755 15.254 11.5755 14.819C11.5755 13.9404 11.2265 13.0979 10.6053 12.4767C9.98408 11.8555 9.14153 11.5065 8.263 11.5065C7.38447 11.5065 6.54192 11.8555 5.92071 12.4767C5.2995 13.0979 4.9505 13.9404 4.9505 14.819Z" fill="#8D99AE"/>
</svg>
