<svg width="50" height="50" viewBox="0 0 50 50" fill="none" xmlns="http://www.w3.org/2000/svg">
<path d="M24.05 13H22.2H12.3333C5.52533 13 0 18.5253 0 25.3333V37.6667C0 44.4747 5.52533 50 12.3333 50H24.6667C31.4747 50 37 44.4747 37 37.6667V27.8V25.95C37 18.7967 31.2033 13 24.05 13Z" fill="#FFF200"/>
<path d="M36.4631 0C29.3993 0 23.6153 5.41477 23 12.3063H24.7721C31.9098 12.3063 37.6937 18.0902 37.6937 25.2279V27C44.5852 26.3847 50 20.5761 50 13.5369C50 6.05469 43.9453 0 36.4631 0Z" fill="#8D99AE"/>
</svg>
