<svg width="20" height="25" viewBox="0 0 20 25" fill="none" xmlns="http://www.w3.org/2000/svg">
<path fill-rule="evenodd" clip-rule="evenodd" d="M14.8593 4.21066C11.9388 1.40511 7.17485 1.40511 4.25425 4.21066C1.76327 6.60351 1.39224 10.3138 3.32898 13.1046L9.55682 22.0783L15.7846 13.1046C17.7213 10.3138 17.3503 6.60351 14.8593 4.21066ZM2.86627 2.66785C6.56927 -0.889282 12.5444 -0.889282 16.2473 2.66785C19.4733 5.76667 19.9892 10.6608 17.4412 14.3321L10.5503 24.2613C10.0651 24.9604 9.0485 24.9604 8.5632 24.2613L1.67238 14.3321C-0.875552 10.6608 -0.359643 5.76667 2.86627 2.66785Z" fill="#FFF200"/>
<path d="M9.64999 11.1521C10.9745 11.1521 12.0483 10.0426 12.0483 8.67387C12.0483 7.30518 10.9745 6.19563 9.64999 6.19563C8.32545 6.19563 7.2517 7.30518 7.2517 8.67387C7.2517 10.0426 8.32545 11.1521 9.64999 11.1521Z" fill="#FFF200"/>
</svg>
