<svg width="24" height="25" viewBox="0 0 24 25" fill="none" xmlns="http://www.w3.org/2000/svg">
<path d="M12 0C5.37302 0 0 5.55212 0 12.4C0 19.2479 5.37302 24.8 12 24.8C18.627 24.8 24 19.2479 24 12.4C24 5.55212 18.627 0 12 0ZM14.5 19.2192C13.881 19.4693 13.3889 19.662 13.0198 19.7933C12.6508 19.9245 12.2262 19.9901 11.7381 19.9901C10.9921 19.9901 10.4087 19.8015 9.99207 19.4242C9.57937 19.0511 9.37302 18.5713 9.37302 17.989C9.37302 17.7635 9.38889 17.5339 9.42064 17.3001C9.44841 17.0623 9.5 16.7999 9.56746 16.5005L10.3413 13.6794C10.4087 13.4087 10.4683 13.1545 10.5159 12.9126C10.5635 12.6706 10.5833 12.4492 10.5833 12.2483C10.5833 11.8915 10.5119 11.6373 10.369 11.4979C10.2222 11.3544 9.94841 11.2847 9.54365 11.2847C9.34524 11.2847 9.13889 11.3175 8.92857 11.379C8.71826 11.4446 8.53968 11.5061 8.38889 11.5635L8.59524 10.6942C9.09921 10.481 9.58333 10.3005 10.0476 10.1488C10.5079 9.99709 10.9484 9.91918 11.3571 9.91918C12.0992 9.91918 12.6746 10.1078 13.0754 10.4769C13.4762 10.8459 13.6786 11.3298 13.6786 11.9202C13.6786 12.0433 13.6667 12.2606 13.6389 12.5681C13.6111 12.8757 13.5595 13.1586 13.4841 13.421L12.7143 16.234C12.6508 16.4595 12.5952 16.7179 12.5437 17.0049C12.496 17.2919 12.4722 17.5134 12.4722 17.661C12.4722 18.0341 12.5516 18.2925 12.7143 18.4278C12.873 18.5631 13.1548 18.6287 13.5556 18.6287C13.7421 18.6287 13.9524 18.5959 14.1905 18.5303C14.4246 18.4606 14.5952 18.4032 14.7024 18.3499L14.5 19.2192ZM14.3611 7.79921C14.004 8.14365 13.5714 8.31587 13.0675 8.31587C12.5635 8.31587 12.127 8.14365 11.7659 7.79921C11.4048 7.45476 11.2262 7.03651 11.2262 6.54854C11.2262 6.06058 11.4087 5.63823 11.7659 5.28968C12.127 4.94114 12.5635 4.76892 13.0675 4.76892C13.5714 4.76892 14.004 4.94114 14.3611 5.28968C14.7222 5.63823 14.9008 6.06058 14.9008 6.54854C14.9008 7.03651 14.7222 7.45476 14.3611 7.79921Z" fill="#FFF200"/>
</svg>
