<svg width="22" height="22" viewBox="0 0 22 22" fill="none" xmlns="http://www.w3.org/2000/svg">
<path fill-rule="evenodd" clip-rule="evenodd" d="M3.27988 2.17C2.69999 2.17 2.22988 2.65578 2.22988 3.255V18.445C2.22988 19.0442 2.69999 19.53 3.27988 19.53H10.6299H11.6799C12.2598 19.53 12.7299 19.0442 12.7299 18.445V3.255C12.7299 2.65578 12.2598 2.17 11.6799 2.17H3.27988ZM3.27988 21.7H10.6299H11.6799H17.9799C19.7196 21.7 21.1299 20.2427 21.1299 18.445V7.595C21.1299 5.79732 19.7196 4.34 17.9799 4.34H14.8299V3.255C14.8299 1.45732 13.4196 0 11.6799 0H3.27988C1.54019 0 0.129883 1.45732 0.129883 3.255V18.445C0.129883 20.2427 1.54019 21.7 3.27988 21.7ZM17.9799 19.53H14.6506C14.7667 19.1906 14.8299 18.8254 14.8299 18.445V6.51H17.9799C18.5598 6.51 19.0299 6.99578 19.0299 7.595V18.445C19.0299 19.0442 18.5598 19.53 17.9799 19.53ZM5.37988 13.02H3.27988V15.19H5.37988V13.02ZM6.42988 13.02H8.52988V15.19H6.42988V13.02ZM11.6799 13.02H9.57988V15.19H11.6799V13.02ZM15.8799 13.02H17.9799V15.19H15.8799V13.02ZM17.9799 8.68H15.8799V10.85H17.9799V8.68ZM3.27988 8.68H5.37988V10.85H3.27988V8.68ZM8.52988 8.68H6.42988V10.85H8.52988V8.68ZM9.57988 8.68H11.6799V10.85H9.57988V8.68ZM5.37988 4.34H3.27988V6.51H5.37988V4.34ZM6.42988 4.34H8.52988V6.51H6.42988V4.34ZM11.6799 4.34H9.57988V6.51H11.6799V4.34Z" fill="#FFF200"/>
</svg>
