<svg width="14" height="16" viewBox="0 0 14 16" fill="none" xmlns="http://www.w3.org/2000/svg">
<path d="M0 0.975098H14V15.3788H0V0.975098Z" fill="#F7DF1E"/>
<path d="M3.68111 13.012L4.75249 12.3449C4.95918 12.7219 5.1472 13.0409 5.5982 13.0409C6.03051 13.0409 6.30307 12.867 6.30307 12.1902V7.58789H7.61871V12.2093C7.61871 13.6113 6.81996 14.2494 5.6546 14.2494C4.60213 14.2494 3.9912 13.6886 3.68109 13.0119" fill="black"/>
<path d="M8.33333 12.8669L9.40457 12.2288C9.68657 12.7026 10.0531 13.0507 10.7015 13.0507C11.2466 13.0507 11.5942 12.7702 11.5942 12.3835C11.5942 11.9194 11.2372 11.755 10.6357 11.4844L10.3069 11.3392C9.35764 10.9236 8.72797 10.4015 8.72797 9.29923C8.72797 8.28402 9.47977 7.5105 10.6545 7.5105C11.4909 7.5105 12.0924 7.81025 12.5246 8.59343L11.5003 9.27019C11.2747 8.85448 11.0304 8.69014 10.6546 8.69014C10.2692 8.69014 10.0249 8.94151 10.0249 9.27019C10.0249 9.67629 10.2692 9.84069 10.833 10.0921L11.1619 10.2371C12.2803 10.7302 12.9099 11.233 12.9099 12.3641C12.9099 13.5825 11.9796 14.2495 10.7297 14.2495C9.50802 14.2495 8.71857 13.6501 8.33333 12.8669Z" fill="black"/>
</svg>
