<svg width="50" height="42" viewBox="0 0 50 42" fill="none" xmlns="http://www.w3.org/2000/svg">
<path d="M48.6739 12.553H23.0243C22.2918 12.553 21.6981 13.1607 21.6981 13.9104V40.1646C21.6981 40.9143 22.2918 41.522 23.0243 41.522H48.6739C49.4063 41.522 50 40.9143 50 40.1646V13.9104C50 13.1607 49.4063 12.553 48.6739 12.553Z" fill="#3178C6"/>
<path fill-rule="evenodd" clip-rule="evenodd" d="M38.1183 35.0654V38.2396C38.6817 38.5242 39.2822 38.7246 39.9013 38.8345C40.6167 38.9697 41.3429 39.0362 42.0704 39.0331C42.7795 39.0366 43.4869 38.9634 44.1809 38.8148C44.8041 38.6859 45.3986 38.4404 45.9346 38.0906C46.4323 37.7618 46.8424 37.3117 47.1284 36.7808C47.6405 35.6813 47.708 34.4195 47.3164 33.2693C47.1511 32.8392 46.9049 32.4466 46.5916 32.1137C46.2554 31.7597 45.8735 31.4544 45.4565 31.2063C44.9765 30.9185 44.4776 30.6648 43.9636 30.4469C43.5593 30.2752 43.1954 30.1082 42.872 29.9462C42.5847 29.8054 42.3098 29.6396 42.0502 29.4506C41.8469 29.3047 41.6704 29.1233 41.5286 28.9147C41.4062 28.7252 41.3424 28.5024 41.3457 28.2753C41.343 28.0662 41.3999 27.8609 41.5094 27.6845C41.6284 27.4999 41.7871 27.3455 41.9734 27.2334C42.2011 27.0962 42.4489 26.9973 42.7072 26.9406C43.0244 26.8685 43.3486 26.8338 43.6735 26.8372C43.9468 26.8381 44.2196 26.8582 44.4902 26.8972C44.7824 26.9376 45.0715 26.9988 45.3555 27.0803C45.6442 27.1622 45.9267 27.266 46.2005 27.3907C46.4661 27.5119 46.7203 27.6581 46.9596 27.8273V24.8652C46.4614 24.6723 45.9447 24.5336 45.4181 24.4514C44.7822 24.3566 44.1402 24.312 43.4976 24.3179C42.7953 24.314 42.0949 24.3956 41.4114 24.561C40.7935 24.7055 40.2061 24.9624 39.6769 25.3194C39.1853 25.6546 38.7794 26.1055 38.4933 26.6344C38.19 27.2217 38.0399 27.8792 38.0576 28.5432C38.0352 29.4214 38.3178 30.2792 38.8551 30.9642C39.5143 31.7237 40.3456 32.306 41.2759 32.6599C41.7005 32.8393 42.0964 33.0148 42.4636 33.1865C42.795 33.3375 43.1135 33.5164 43.4158 33.7214C43.6596 33.8838 43.8738 34.0886 44.0485 34.3267C44.2022 34.5426 44.2837 34.8035 44.281 35.0706C44.2824 35.2707 44.2322 35.4677 44.1354 35.6417C44.028 35.8286 43.8769 35.9854 43.6958 36.0979C43.4691 36.2394 43.2211 36.3415 42.9619 36.4C42.6243 36.4773 42.2789 36.5138 41.933 36.5087C41.254 36.5074 40.5805 36.3849 39.9427 36.1466C39.2764 35.9005 38.6585 35.5343 38.1183 35.0654ZM32.9087 27.1631H36.9518V24.5486H25.6786V27.1631H29.7035V38.8065H32.9087V27.1631Z" fill="white"/>
<path d="M0 6C0 2.68629 2.68629 0 6 0H22.3019C25.6156 0 28.3019 2.68629 28.3019 6V22.969C28.3019 26.2827 25.6156 28.969 22.3019 28.969H6C2.68629 28.969 0 26.2827 0 22.969V6Z" fill="#F7DF1E"/>
<path d="M7.4416 24.2081L9.60746 22.8665C10.0253 23.6248 10.4054 24.2664 11.3171 24.2664C12.1911 24.2664 12.7421 23.9164 12.7421 22.5554V13.2991H15.4017V22.5938C15.4017 25.4135 13.787 26.6969 11.4311 26.6969C9.30351 26.6969 8.06847 25.569 7.44156 24.2079" fill="black"/>
<path d="M16.8464 23.9163L19.0119 22.6329C19.582 23.5858 20.323 24.2858 21.6337 24.2858C22.7358 24.2858 23.4385 23.7218 23.4385 22.944C23.4385 22.0106 22.7166 21.68 21.5007 21.1357L20.836 20.8438C18.9171 20.0078 17.6442 18.9577 17.6442 16.7408C17.6442 14.699 19.164 13.1433 21.5388 13.1433C23.2296 13.1433 24.4455 13.7462 25.3193 15.3213L23.2485 16.6824C22.7925 15.8463 22.2987 15.5158 21.5389 15.5158C20.7599 15.5158 20.2659 16.0214 20.2659 16.6824C20.2659 17.4992 20.7599 17.8299 21.8997 18.3355L22.5646 18.6271C24.8253 19.6189 26.0982 20.63 26.0982 22.9051C26.0982 25.3554 24.2175 26.697 21.6908 26.697C19.2211 26.697 17.6252 25.4915 16.8464 23.9163Z" fill="black"/>
</svg>
