<svg width="16" height="12" viewBox="0 0 16 12" fill="none" xmlns="http://www.w3.org/2000/svg">
<rect x="3.05176e-05" width="16" height="11.7894" fill="#009B3A"/>
<path d="M14.5458 5.77774L8.00001 10.7217L1.45425 5.77774L8.00001 0.833313L14.5458 5.77774Z" fill="#FEDF01"/>
<path d="M7.98937 8.61418C9.57455 8.61418 10.8596 7.32914 10.8596 5.74396C10.8596 4.15879 9.57455 2.87375 7.98937 2.87375C6.40419 2.87375 5.11916 4.15879 5.11916 5.74396C5.11916 7.32914 6.40419 8.61418 7.98937 8.61418Z" fill="#002776"/>
<path d="M5.45647 4.39421C5.3074 4.67513 5.20645 4.97904 5.15781 5.29332C6.93336 5.16443 9.34313 6.13376 10.3773 7.33554C10.556 7.06709 10.6885 6.76665 10.7698 6.44487C9.49335 5.19688 7.25113 4.3871 5.45647 4.39421Z" fill="white"/>
</svg>
