<svg width="18" height="15" viewBox="0 0 18 15" fill="none" xmlns="http://www.w3.org/2000/svg">
<path d="M15.5054 1.66343C13.9479 0.250324 11.4839 0.0107863 11.3784 0.00216955C11.2148 -0.01334 11.0589 0.0900579 10.9917 0.260664C10.9856 0.271004 10.9321 0.410591 10.8725 0.627726C11.9027 0.824181 13.1683 1.21882 14.3132 2.02015C14.4966 2.14767 14.5532 2.41995 14.44 2.62675C14.3651 2.76289 14.2383 2.83699 14.1068 2.83699C14.0365 2.83699 13.9647 2.81459 13.9005 2.76978C11.9317 1.39287 9.47385 1.32394 9 1.32394C8.52615 1.32394 6.06675 1.39287 4.09952 2.76978C3.9161 2.89903 3.67459 2.83527 3.56148 2.62847C3.44684 2.41995 3.5034 2.14939 3.68682 2.02015C4.83169 1.22054 6.09732 0.824181 7.12755 0.629449C7.06793 0.410591 7.01444 0.272727 7.00985 0.260664C6.94107 0.0900579 6.78668 -0.0167864 6.6216 0.00216955C6.51613 0.0107863 4.05214 0.250324 2.47317 1.68238C1.64929 2.54231 0 7.56743 0 11.9119C0 11.9894 0.0183424 12.0635 0.0519703 12.1307C1.1892 14.3848 4.29365 14.9742 5.00136 15C5.00442 15 5.009 15 5.01359 15C5.13893 15 5.25662 14.9328 5.32999 14.8191L6.04535 13.7093C4.11481 13.1475 3.12891 12.1928 3.07235 12.1359C2.91033 11.9756 2.89504 11.6964 3.03872 11.5138C3.18088 11.3311 3.4285 11.3139 3.59052 11.4741C3.61345 11.4983 5.42935 13.2353 9 13.2353C12.5768 13.2353 14.3927 11.4914 14.411 11.4741C14.573 11.3156 14.8191 11.3311 14.9628 11.5155C15.105 11.6982 15.0897 11.9756 14.9276 12.1359C14.8711 12.1928 13.8852 13.1475 11.9547 13.7093L12.67 14.8191C12.7434 14.9328 12.8611 15 12.9864 15C12.991 15 12.9956 15 12.9986 15C13.7064 14.9742 16.8108 14.3848 17.948 12.1307C17.9817 12.0635 18 11.9894 18 11.9119C18 7.56743 16.3507 2.54231 15.5054 1.66343ZM6.45652 10.1472C5.6999 10.1472 5.08696 9.35794 5.08696 8.38255C5.08696 7.40717 5.6999 6.6179 6.45652 6.6179C7.21315 6.6179 7.82609 7.40717 7.82609 8.38255C7.82609 9.35794 7.21315 10.1472 6.45652 10.1472ZM11.5435 10.1472C10.7869 10.1472 10.1739 9.35794 10.1739 8.38255C10.1739 7.40717 10.7869 6.6179 11.5435 6.6179C12.3001 6.6179 12.913 7.40717 12.913 8.38255C12.913 9.35794 12.3001 10.1472 11.5435 10.1472Z" fill="#8D99AE"/>
</svg>
