<svg width="16" height="16" viewBox="0 0 16 16" fill="none" xmlns="http://www.w3.org/2000/svg">
<path fill-rule="evenodd" clip-rule="evenodd" d="M8.00002 16C12.4183 16 16 12.4183 16 8.00002C16 3.58174 12.4183 0 8.00002 0C3.58172 0 0 3.58174 0 8.00002C0 12.4183 3.58172 16 8.00002 16ZM14.5056 8.72733C14.2355 11.17 12.6212 13.2076 10.4189 14.084C11.1281 12.6397 11.5424 10.7578 11.6222 8.72733H14.5056ZM10.1661 8.72733C10.06 11.1808 9.41941 13.3492 8.42057 14.5322C8.28148 14.541 8.1413 14.5455 8.00002 14.5455C7.85875 14.5455 7.71846 14.541 7.57948 14.5322C6.58064 13.3492 5.94006 11.1808 5.8338 8.72733H10.1661ZM4.37787 8.72733C4.45762 10.7578 4.87194 12.6397 5.58114 14.084C3.37876 13.2076 1.76453 11.17 1.49449 8.72733H4.37787ZM5.8338 7.27275H10.1661C10.06 4.81923 9.41941 2.65082 8.42057 1.46784C8.28148 1.45903 8.1413 1.45456 8.00002 1.45456C7.85875 1.45456 7.71846 1.45903 7.57948 1.46784C6.58064 2.65082 5.94006 4.81923 5.8338 7.27275ZM5.58114 1.91603C4.87194 3.36042 4.45762 5.24216 4.37787 7.27275H1.49449C1.76453 4.83001 3.37876 2.79242 5.58114 1.91603ZM14.5056 7.27275H11.6222C11.5424 5.24217 11.1281 3.36042 10.4189 1.91603C12.6212 2.79241 14.2355 4.83001 14.5056 7.27275Z" fill="#8D99AE"/>
</svg>
