<svg width="16" height="17" viewBox="0 0 16 17" fill="none" xmlns="http://www.w3.org/2000/svg">
<path fill-rule="evenodd" clip-rule="evenodd" d="M16 17H12.8V11.0508C12.8 9.41883 12.1224 8.5083 10.9072 8.5083C9.5848 8.5083 8.8 9.45708 8.8 11.0508V17H5.6V5.95H8.8V7.19263C8.8 7.19263 9.80399 5.3208 12.0664 5.3208C14.3296 5.3208 16 6.78819 16 9.82439V17ZM1.9536 4.18276C0.874401 4.18276 0 3.24612 0 2.09097C0 0.936667 0.874401 0 1.9536 0C3.032 0 3.9064 0.936667 3.9064 2.09097C3.9072 3.24612 3.032 4.18276 1.9536 4.18276ZM0 17H4V5.95H0V17Z" fill="#8D99AE"/>
</svg>
