<svg width="16" height="12" viewBox="0 0 16 12" fill="none" xmlns="http://www.w3.org/2000/svg">
  <path d="M16 0.0908813H4.57764e-05V1.38057H16V0.0908813Z" fill="#DC4437" />
  <path d="M16 2.67995H4.57764e-05V3.96964H16V2.67995Z" fill="#DC4437" />
  <path d="M16 7.84843H4.57764e-05V9.13813H16V7.84843Z" fill="#DC4437" />
  <path d="M16 10.4375H4.57764e-05V11.7272H16V10.4375Z" fill="#DC4437" />
  <path d="M16 5.25935H4.57764e-05V6.54905H16V5.25935Z" fill="#DC4437" />
  <path d="M16 1.38055H4.57764e-05V2.67025H16V1.38055Z" fill="white" />
  <path d="M16 3.96964H4.57764e-05V5.25933H16V3.96964Z" fill="white" />
  <path d="M16 9.13812H4.57764e-05V10.4278H16V9.13812Z" fill="white" />
  <path d="M16 6.55872H4.57764e-05V7.84841H16V6.55872Z" fill="white" />
  <path d="M8.72725 0.0884705H0V6.63391H8.72725V0.0884705Z" fill="#2A66B7" />
</svg>