<svg width="12" height="9" viewBox="0 0 12 9" fill="none" xmlns="http://www.w3.org/2000/svg">
<path d="M10.337 0.998055C9.29857 0.150194 7.65591 0.00647181 7.5856 0.00130173C7.47656 -0.008004 7.37262 0.0540347 7.32779 0.156398C7.32371 0.162602 7.28804 0.246354 7.2483 0.376635C7.93512 0.494509 8.77887 0.731289 9.54212 1.21209C9.6644 1.2886 9.70211 1.45197 9.6267 1.57605C9.57677 1.65773 9.49219 1.70219 9.40455 1.70219C9.35768 1.70219 9.30978 1.68875 9.26698 1.66187C7.95448 0.835721 6.3159 0.794362 6 0.794362C5.6841 0.794362 4.0445 0.835721 2.73302 1.66187C2.61073 1.73942 2.44973 1.70116 2.37432 1.57708C2.29789 1.45197 2.3356 1.28964 2.45788 1.21209C3.22113 0.732323 4.06488 0.494509 4.7517 0.377669C4.71196 0.246354 4.67629 0.163636 4.67323 0.156398C4.62738 0.0540347 4.52446 -0.0100718 4.4144 0.00130173C4.34409 0.00647181 2.70143 0.150194 1.64878 1.00943C1.09952 1.52538 0 4.54046 0 7.14711C0 7.19364 0.0122283 7.2381 0.0346469 7.27843C0.792799 8.63087 2.86243 8.98449 3.33424 9C3.33628 9 3.33933 9 3.34239 9C3.42595 9 3.50442 8.95967 3.55333 8.89143L4.03023 8.22555C2.74321 7.88848 2.08594 7.31565 2.04823 7.28153C1.94022 7.18537 1.93003 7.01787 2.02582 6.90827C2.12058 6.79866 2.28567 6.78832 2.39368 6.88448C2.40897 6.89896 3.61957 7.94121 6 7.94121C8.38451 7.94121 9.59511 6.89482 9.60734 6.88448C9.71535 6.78936 9.87942 6.79866 9.9752 6.9093C10.07 7.0189 10.0598 7.18537 9.95177 7.28153C9.91406 7.31565 9.25679 7.88848 7.96977 8.22555L8.44667 8.89143C8.49558 8.95967 8.57405 9 8.65761 9C8.66067 9 8.66372 9 8.66576 9C9.13757 8.98449 11.2072 8.63087 11.9654 7.27843C11.9878 7.2381 12 7.19364 12 7.14711C12 4.54046 10.9005 1.52538 10.337 0.998055ZM4.30435 6.08832C3.79993 6.08832 3.3913 5.61476 3.3913 5.02953C3.3913 4.4443 3.79993 3.97074 4.30435 3.97074C4.80876 3.97074 5.21739 4.4443 5.21739 5.02953C5.21739 5.61476 4.80876 6.08832 4.30435 6.08832ZM7.69565 6.08832C7.19124 6.08832 6.78261 5.61476 6.78261 5.02953C6.78261 4.4443 7.19124 3.97074 7.69565 3.97074C8.20007 3.97074 8.6087 4.4443 8.6087 5.02953C8.6087 5.61476 8.20007 6.08832 7.69565 6.08832Z" fill="#8D99AE"/>
</svg>
