<svg width="12" height="12" viewBox="0 0 12 12" fill="none" xmlns="http://www.w3.org/2000/svg">
<path fill-rule="evenodd" clip-rule="evenodd" d="M5.97458 0C2.39981 0 -0.441159 3.07624 0.0568361 6.67508C0.374233 8.96831 2.11361 10.8938 4.39179 11.501C5.24018 11.7272 6.11617 11.7752 6.99576 11.6233C7.73016 11.4961 8.48375 11.5531 9.20314 11.7331L10.0773 11.9516C11.2107 12.2354 12.2403 11.2267 11.9505 10.1155C11.9505 10.1155 11.7885 9.4939 11.7837 9.4741C11.6025 8.7781 11.5635 8.04309 11.7507 7.34888C11.9823 6.49327 12.0213 5.56145 11.8131 4.59604C11.2623 2.04901 8.92354 0 5.97458 0ZM5.97458 1.20001C8.34575 1.20001 10.2027 2.82604 10.6401 4.84986C10.8003 5.59147 10.7841 6.32649 10.5927 7.03569C9.78274 10.0309 12.1509 11.2333 9.49414 10.5685C8.61035 10.3477 7.68936 10.2853 6.79117 10.4407C6.09817 10.5607 5.39618 10.5265 4.70079 10.3417C2.88461 9.85754 1.49562 8.31791 1.24542 6.51069C0.842828 3.59825 3.1612 1.20001 5.97458 1.20001Z" fill="#8D99AE"/>
</svg>
